# xmcd CD database file
#
# Track frame offsets:
#	150
#	13419
#	30671
#	58140
#	82349
#	96375
#	129112
#
# Disc length: 2145 seconds
#
# Revision: 2
# Processed by: cddbd v1.5.2PL0 Copyright (c) Steve Scherf et al.
# Submitted via: CDex 1.51
#
DISCID=5d085f07
DTITLE=Thelonious Monk - Vol.10 - Friends Play Monk
DYEAR=1900
DGENRE=Jazz
TTITLE0=Round About Midnight
TTITLE1=Rhythm-N-Ning
TTITLE2=(Monk)'s Dream
TTITLE3=Well You Needn't
TTITLE4=52nd Street Theme
TTITLE5=Hornin' In
TTITLE6='Round Midnight
EXTD=
EXTT0=
EXTT1=
EXTT2=
EXTT3=
EXTT4=
EXTT5=
EXTT6=
PLAYORDER=
